<svg width="40" height="41" viewBox="0 0 40 41" fill="none" xmlns="http://www.w3.org/2000/svg">
<rect y="0.5" width="40" height="40" rx="20" fill="#1364b0"></rect>
<g clip-path="url(#clip0_12435_1198)">
<path fill-rule="evenodd" clip-rule="evenodd" d="M30.6559 20.4997C30.6559 23.3459 29.5474 26.0217 27.5347 28.0344C25.5217 30.0475 22.8458 31.1562 20 31.1562C19.644 31.1562 19.3555 30.8676 19.3555 30.5116C19.3555 30.1557 19.644 29.8671 20 29.8671C22.5015 29.8671 24.8537 28.8925 26.6232 27.1229C30.2753 23.4709 30.2753 17.5285 26.6232 13.8765C22.9708 10.2241 17.0279 10.2241 13.3756 13.8765C13.3475 13.9045 13.32 13.9329 13.2923 13.9613H14.1061C14.4621 13.9613 14.7506 14.2499 14.7506 14.6059C14.7506 14.9618 14.4621 15.2504 14.1061 15.2504H11.7347C11.3787 15.2504 11.0901 14.9618 11.0901 14.6059V12.2344C11.0901 11.8785 11.3787 11.5899 11.7347 11.5899C12.0906 11.5899 12.3792 11.8785 12.3792 12.2344V13.0515C12.4074 13.0226 12.4355 12.9935 12.464 12.965C14.4768 10.9523 17.1528 9.84384 19.9994 9.84384C22.846 9.84384 25.5221 10.9523 27.5348 12.965C29.5475 14.9777 30.6559 17.6535 30.6559 20.4997H30.6559ZM13.2984 20.4997C13.2984 16.8044 16.3047 13.7981 20 13.7981C23.6953 13.7981 26.7016 16.8044 26.7016 20.4997C26.7016 24.195 23.6953 27.2013 20 27.2013C16.3047 27.2013 13.2984 24.195 13.2984 20.4997ZM19.3555 20.4997C19.3555 20.7299 19.4783 20.9427 19.6776 21.0578L21.8603 22.3184C21.9618 22.3771 22.0726 22.4049 22.182 22.4049C22.4047 22.4049 22.6214 22.2894 22.7408 22.0827C22.9188 21.7744 22.8133 21.3802 22.505 21.2022L20.6445 20.1277V17.0991C20.6445 16.7431 20.356 16.4545 20 16.4545C19.644 16.4545 19.3555 16.7431 19.3555 17.0991V20.4997V20.4997ZM10.6324 20.4997C10.6324 20.1453 10.3437 19.8554 9.98807 19.8554C9.63241 19.8554 9.34375 20.1453 9.34375 20.4997C9.34375 20.8542 9.63362 21.144 9.98807 21.144C10.3425 21.144 10.6324 20.8542 10.6324 20.4997ZM17.575 29.547C17.2315 29.4556 16.8783 29.6591 16.7857 30.0037C16.6944 30.3472 16.8978 30.7004 17.2412 30.793C17.5859 30.8843 17.9391 30.6809 18.0305 30.3362C18.123 29.9927 17.9197 29.6395 17.575 29.547ZM15.3168 28.6116C15.0074 28.4337 14.614 28.5397 14.4362 28.8478C14.2583 29.156 14.3631 29.5506 14.6713 29.7284C14.9794 29.9062 15.3741 29.8003 15.5519 29.4922C15.7297 29.184 15.625 28.7894 15.3168 28.6116ZM12.4643 27.1232C12.2134 27.3753 12.2134 27.7833 12.4643 28.0342C12.7164 28.2864 13.1244 28.2864 13.3765 28.0342C13.6274 27.7833 13.6274 27.3753 13.3765 27.1232C13.1244 26.871 12.7164 26.871 12.4643 27.1232ZM11.0075 24.9478C10.6994 25.1256 10.5934 25.5191 10.7713 25.8272C10.9491 26.1354 11.3437 26.2414 11.6519 26.0635C11.96 25.8857 12.066 25.491 11.8881 25.1829C11.7103 24.8747 11.3157 24.7688 11.0075 24.9478ZM10.9515 22.9235C10.8602 22.58 10.507 22.3767 10.1623 22.468C9.81877 22.5606 9.61415 22.9138 9.70671 23.2573C9.79926 23.602 10.1525 23.8054 10.496 23.714C10.8394 23.6215 11.0441 23.2682 10.9515 22.9235ZM10.1623 18.5314C10.507 18.6228 10.8602 18.4194 10.9515 18.0759C11.0441 17.7312 10.8394 17.378 10.496 17.2854C10.1525 17.1941 9.7993 17.3975 9.70675 17.7422C9.6142 18.0857 9.81881 18.4389 10.1623 18.5314H10.1623Z" fill="white"></path>
</g>
<defs>
<clipPath id="clip0_12435_1198">
<rect width="22" height="22" fill="white" transform="translate(9 9.5)"></rect>
</clipPath>
</defs>
</svg>
