<svg width="41" height="41" viewBox="0 0 41 41" fill="none" xmlns="http://www.w3.org/2000/svg">
<rect x="0.666504" y="0.5" width="40" height="40" rx="20" fill="#1364b0"></rect>
<path d="M19.3663 9.125L18.8219 12.6634C18.7082 13.3987 18.7569 14.1625 19.0413 14.8491C19.4069 15.7387 20.0813 16.4903 20.9629 16.9494C22.5757 17.7863 22.726 18.4972 24.9075 18.9197C25.5291 19.0416 26.1629 19.0944 26.7966 19.0944H27.0363C27.9138 19.0944 28.6288 19.7647 28.6288 20.5853C28.6288 20.9956 28.45 21.3694 28.1657 21.6416C27.8732 21.9097 27.471 22.0763 27.0363 22.0763H24.7085C23.4857 22.0763 23.0957 21.9341 21.9094 21.6578L20.8247 21.475C19.4272 21.2353 17.9932 21.2963 16.6363 21.6538L15.4866 21.9544C15.2794 22.0234 15.0519 22.0681 14.8285 22.0722C14.8488 22.0762 14.865 22.0763 14.8854 22.0763H14.7594C14.7797 22.0763 14.8041 22.0762 14.8244 22.0722C13.5975 22.0478 12.6104 21.1053 12.6104 19.9516C12.6104 19.07 12.7729 18.1925 13.0897 17.3597L13.1994 17.0672V17.055C13.3619 16.6325 13.4675 16.1897 13.5082 15.7388C13.5082 15.3894 13.4594 14.8369 13.4066 14.4956C13.2279 13.4069 13.0735 12.2694 12.9516 11.0831C12.8947 10.4941 12.8013 9.82375 12.7038 9.125" fill="white"></path>
<path d="M27.6297 29.6569L26.6222 28.5356C26.4678 28.365 26.1713 28.365 26.0169 28.5356L25.0094 29.6569C24.8591 29.8234 24.8713 30.0794 25.0378 30.2297C25.2044 30.38 25.4603 30.3678 25.6106 30.2012L25.9113 29.8681V31.8994C25.9113 32.1106 26.0941 32.2812 26.3175 32.2812C26.541 32.2812 26.7238 32.1106 26.7238 31.8994V29.8681L27.0244 30.2012C27.1056 30.2906 27.2153 30.3353 27.325 30.3353C27.4225 30.3353 27.52 30.3028 27.5972 30.2297C27.7638 30.0794 27.776 29.8234 27.6256 29.6569H27.6297Z" fill="white"></path>
<path d="M22.9048 28.5356C22.8276 28.4503 22.7179 28.4016 22.6041 28.4016C22.4904 28.4016 22.3807 28.4503 22.3035 28.5356L21.296 29.6569C21.1457 29.8234 21.1579 30.0794 21.3245 30.2297C21.491 30.38 21.747 30.3678 21.8973 30.2012L22.1979 29.8681V31.8994C22.1979 32.1106 22.3807 32.2812 22.6041 32.2812C22.8276 32.2812 23.0104 32.1106 23.0104 31.8994V29.8681L23.311 30.2012C23.3923 30.2906 23.502 30.3353 23.6116 30.3353C23.7091 30.3353 23.8066 30.3028 23.8838 30.2297C24.0504 30.0794 24.0626 29.8234 23.9123 29.6569L22.9048 28.5356Z" fill="white"></path>
<path d="M19.192 28.5356C19.0377 28.365 18.7411 28.365 18.5867 28.5356L17.5792 29.6569C17.4289 29.8234 17.4411 30.0794 17.6077 30.2297C17.6848 30.2987 17.7823 30.3353 17.8798 30.3353C17.9895 30.3353 18.1033 30.2906 18.1805 30.2012L18.4811 29.8681V31.8994C18.4811 32.1106 18.6639 32.2812 18.8873 32.2812C19.1108 32.2812 19.2936 32.1106 19.2936 31.8994V29.8681L19.5942 30.2012C19.7445 30.3678 20.0005 30.38 20.167 30.2297C20.3336 30.0794 20.3458 29.8234 20.1955 29.6569L19.188 28.5356H19.192Z" fill="white"></path>
<path d="M15.4787 28.5356C15.3243 28.365 15.0277 28.365 14.8733 28.5356L13.8658 29.6569C13.7155 29.8234 13.7277 30.0794 13.8943 30.2297C13.9715 30.2987 14.069 30.3353 14.1665 30.3353C14.2762 30.3353 14.3899 30.2906 14.4671 30.2012L14.7677 29.8681V31.8994C14.7677 32.1106 14.9505 32.2812 15.174 32.2812C15.3974 32.2812 15.5802 32.1106 15.5802 31.8994V29.8681L15.8808 30.2012C16.0312 30.3678 16.2871 30.38 16.4537 30.2297C16.6202 30.0794 16.6324 29.8234 16.4821 29.6569L15.4746 28.5356H15.4787Z" fill="white"></path>
<path d="M12.7773 23.6485C12.7773 23.6485 13.9636 24.2538 15.9542 23.8069C18.0423 23.3397 19.7689 23.0675 20.8658 23.5063C22.9905 24.3553 23.4008 25.1353 25.6392 25.1353C26.6914 25.1353 27.5323 24.8875 28.1255 24.6235C28.4708 24.4691 28.8242 24.8144 28.678 25.1638L28.357 25.9478C28.1011 26.5775 27.4877 26.9878 26.8092 26.9878H14.7964C14.0002 26.9878 13.3136 26.4272 13.1592 25.6472L12.7773 23.6485Z" fill="white"></path>
</svg>
