<svg width="41" height="41" viewBox="0 0 41 41" fill="none" xmlns="http://www.w3.org/2000/svg">
<rect x="0.333496" y="0.5" width="40" height="40" rx="20" fill="#1364b0"></rect>
<g clip-path="url(#clip0_12435_1213)">
<path d="M25.0066 14.3574C24.8361 15.4178 24.8015 16.2001 24.5777 16.9284C23.7091 19.7619 23.725 22.6624 23.733 25.5756C23.7357 26.7106 23.6105 27.8918 23.2721 28.9727C22.7632 30.5864 21.3377 31.5026 19.6645 31.5026C17.9486 31.5026 16.5844 30.7305 16.0089 29.2069C15.5692 28.0411 15.3081 26.6823 15.4573 25.4624C15.8463 22.284 15.8383 19.1803 14.9724 16.0637C14.4875 14.3163 14.8898 12.5714 15.7424 10.9706C16.603 9.3467 18.0285 8.46911 19.9176 8.49999C21.8573 8.53345 23.3307 9.45994 24.0821 11.1842C24.5537 12.2651 24.7508 13.4593 25.004 14.36L25.0066 14.3574ZM22.0065 25.133C22.0065 24.4047 22.0891 23.6635 21.9745 22.9532C21.9132 22.5749 21.5908 22.0601 21.2525 21.9237C19.1049 21.0667 17.5303 21.8774 17.2638 24.0238C17.1066 25.2848 17.0507 26.5948 17.2265 27.8481C17.4183 29.2095 18.5827 29.9481 19.8803 29.8503C20.9967 29.7654 21.8573 28.893 21.9905 27.5753C22.0731 26.7698 22.0065 25.9488 22.0092 25.1356L22.0065 25.133ZM17.493 14.3394C17.818 14.0949 18.207 13.5828 18.4761 13.6368C19.7231 13.8813 21.3217 12.7515 22.0624 14.1927C22.5474 13.8659 23.1149 13.4824 23.6584 13.1144C23.0802 12.5122 22.6353 12.0515 22.153 11.5522C21.5029 13.2611 20.0961 12.3346 19.0516 12.4787C18.572 12.5431 18.0258 12.1519 17.2985 11.892C17.0666 12.0953 16.5604 12.5405 16.0009 13.0295C16.611 13.5648 17.1173 14.01 17.493 14.3394Z" fill="white"></path>
<path d="M26.6424 15.6159C26.5891 13.0243 26.2747 10.8368 24.4922 9.07648C26.661 9.2103 27.6948 13.0964 26.6424 15.6159Z" fill="white"></path>
<path d="M12.3665 9.18201C11.8097 11.0015 11.1942 13.0063 10.6427 14.8078C9.84599 12.8493 10.6613 10.2475 12.3665 9.18201Z" fill="white"></path>
<path d="M12.9685 15.2659C12.1666 12.3269 13.1231 9.71473 15.228 9.05075C13.4322 10.8317 13.163 13.0346 12.9685 15.2659Z" fill="white"></path>
<path d="M27.3247 9.21545C29.0113 10.25 29.7467 12.4787 29.1019 14.8464C28.537 13.0578 27.9029 11.0478 27.3247 9.21545Z" fill="white"></path>
<path d="M22.0063 25.133C22.0063 25.9462 22.0702 26.7672 21.9903 27.5727C21.8571 28.8904 20.9965 29.7628 19.8801 29.8478C18.5825 29.9455 17.4182 29.2069 17.2263 27.8455C17.0505 26.5948 17.1064 25.2822 17.2636 24.0212C17.5327 21.8723 19.1074 21.0616 21.2523 21.9212C21.5933 22.0576 21.913 22.5697 21.9743 22.9506C22.0889 23.6609 22.0063 24.4021 22.0063 25.1304V25.133Z" fill="#1364b0"></path>
<path d="M17.4926 14.3394C17.1195 14.01 16.6133 13.5674 16.0005 13.0295C16.56 12.5379 17.0663 12.0927 17.2981 11.892C18.0254 12.1519 18.5717 12.5456 19.0513 12.4787C20.0984 12.3346 21.5052 13.2637 22.1526 11.5522C22.6349 12.0515 23.0772 12.5148 23.658 13.1144C23.1145 13.4799 22.547 13.8633 22.0621 14.1927C21.3213 12.7515 19.7227 13.8839 18.4757 13.6368C18.2066 13.5828 17.8176 14.0949 17.4926 14.3394Z" fill="#1364b0"></path>
</g>
<defs>
<clipPath id="clip0_12435_1213">
<rect width="19" height="23" fill="white" transform="translate(10.3335 8.5)"></rect>
</clipPath>
</defs>
</svg>
